# xmcd
#
# Track frame offsets: 
#        187
#        11145
#        29372
#        40602
#        55262
#        73170
#        87375
#        101932
#        114322
#        133015
#        147027
#        165837
#
# Disc length: 2477 seconds
#
# Revision: 7
# Processed by: cddbd v1.5.2PL0 Copyright (c) Steve Scherf et al.
# Submitted via: ExactAudioCopy v1.2
#
DISCID=9e09ab0c
DTITLE=Lyle Lovett - Lyle Lovett and His Large Band
DYEAR=1989
DGENRE=Country
TTITLE0=Blues Walk, The
TTITLE1=Here I Am
TTITLE2=Cryin' Shame
TTITLE3=Good Intentions
TTITLE4=I Know You Know
TTITLE5=What Do You Do - Glory Of Love, The
TTITLE6=I Married Her Just Because She Looks Like You
TTITLE7=Stand By Your Man
TTITLE8=Which Way Does That Old Pony Run
TTITLE9=Nobody Knows Me
TTITLE10=If You Were To Wake Up
TTITLE11=Once Is Enough
EXTD=
EXTT0=
EXTT1=
EXTT2=
EXTT3=
EXTT4=
EXTT5=
EXTT6=
EXTT7=
EXTT8=
EXTT9=
EXTT10=
EXTT11=
PLAYORDER=
